<?xml version="1.0" encoding="UTF-8" standalone="no"?>
<!DOCTYPE svg PUBLIC "-//W3C//DTD SVG 1.1//EN" "http://www.w3.org/Graphics/SVG/1.1/DTD/svg11.dtd">
<svg xmlns="http://www.w3.org/2000/svg" version="1.1" viewBox="0.00 0.00 500.00 500.00">
<g stroke-width="2.00" fill="none" stroke-linecap="butt">
<path stroke="#14acc6" vector-effect="non-scaling-stroke" d="
  M 226.69 115.31
  Q 226.62 113.63 224.93 113.31
  Q 224.46 113.22 224.12 112.88
  L 222.47 111.22
  A 0.35 0.35 0.0 0 0 221.88 111.48
  Q 221.89 111.63 221.86 111.78
  Q 221.77 112.24 221.36 112.02
  C 219.39 110.95 216.24 109.95 214.28 111.28
  Q 213.86 111.56 213.37 111.62
  L 208.84 112.19
  Q 208.04 112.29 208.69 111.82
  L 210.61 110.41
  Q 211.06 110.09 211.15 109.55
  L 211.21 109.15
  A 0.31 0.30 -18.1 0 0 210.69 108.89
  Q 210.06 109.53 209.41 109.24
  Q 208.81 108.97 208.41 109.49
  Q 207.44 110.71 205.55 110.16"
/>
<path stroke="#1cc8d8" vector-effect="non-scaling-stroke" d="
  M 205.55 110.16
  L 218.48 100.73
  A 0.94 0.94 0.0 0 0 218.87 99.97
  L 218.87 98.03
  Q 218.87 97.59 218.54 97.30
  Q 217.11 96.05 216.51 94.24
  Q 216.40 93.89 216.76 93.87
  Q 217.07 93.84 217.10 93.50
  Q 217.39 90.35 216.77 86.06
  Q 216.76 85.99 216.69 85.97
  L 216.32 85.88
  Q 216.01 85.80 216.09 85.49
  Q 216.39 84.37 215.84 83.45
  Q 215.62 83.08 215.88 82.73
  Q 216.17 82.34 215.76 82.01
  A 0.21 0.21 0.0 0 0 215.49 82.02
  Q 215.37 82.12 215.18 82.16
  A 0.11 0.10 75.1 0 1 215.06 82.08
  Q 214.75 80.84 215.53 79.43"
/>
<path stroke="#1ac8bf" vector-effect="non-scaling-stroke" d="
  M 205.55 110.16
  C 202.70 112.80 199.60 115.21 197.13 117.92
  Q 188.87 126.96 182.35 137.33
  Q 180.57 140.15 177.74 147.20
  Q 171.04 163.88 170.01 179.55
  C 169.84 182.17 168.68 183.74 166.83 185.33
  C 166.00 186.04 165.31 187.24 164.39 187.83
  Q 162.73 188.90 162.35 189.27
  Q 161.15 190.48 159.98 191.73
  C 158.29 193.53 157.52 195.27 156.73 197.55
  Q 156.69 197.66 156.57 197.71
  Q 156.23 197.87 156.15 197.59
  Q 156.08 197.33 155.90 197.53
  L 152.36 201.45
  Q 151.69 202.20 151.46 201.22
  Q 151.35 200.74 151.11 200.46"
/>
<path stroke="#0367b3" vector-effect="non-scaling-stroke" d="
  M 323.05 124.07
  L 321.55 121.61
  Q 321.42 121.40 321.17 121.42
  Q 321.03 121.43 320.90 121.37
  Q 320.48 121.18 320.71 120.78
  Q 321.14 120.01 320.85 119.23
  Q 319.89 116.67 320.93 114.50
  Q 321.16 114.02 320.97 113.52
  L 318.84 108.04
  A 1.53 1.53 0.0 0 0 316.78 107.20
  C 306.55 111.82 295.70 116.17 286.24 120.64
  C 275.28 125.82 264.38 131.07 253.31 136.01
  Q 246.69 138.96 241.05 142.62"
/>
<path stroke="#0da2c8" vector-effect="non-scaling-stroke" d="
  M 241.05 142.62
  Q 236.74 138.30 236.38 133.24
  Q 236.32 132.33 236.38 129.19
  Q 236.39 128.70 236.06 128.33
  Q 235.78 128.02 235.93 127.59
  Q 236.05 127.20 235.65 127.14
  L 234.19 126.93"
/>
<path stroke="#398b62" vector-effect="non-scaling-stroke" d="
  M 308.14 164.34
  L 303.17 170.08"
/>
<path stroke="#0d91ac" vector-effect="non-scaling-stroke" d="
  M 212.26 290.04
  Q 212.66 285.91 212.66 284.75
  Q 212.78 265.86 212.64 199.75
  Q 212.61 186.47 215.52 178.50
  C 217.34 173.49 218.90 168.09 221.45 163.69
  C 226.19 155.53 233.14 148.56 241.05 142.62"
/>
<path stroke="#4bb037" vector-effect="non-scaling-stroke" d="
  M 315.26 202.83
  Q 308.76 203.38 302.36 202.90
  C 301.13 202.81 299.20 203.16 297.68 202.35
  Q 297.41 202.21 297.13 202.33
  Q 296.94 202.40 296.71 202.34
  Q 296.44 202.26 296.42 202.02
  Q 296.41 201.82 296.50 201.52"
/>
<path stroke="#82cc28" vector-effect="non-scaling-stroke" d="
  M 367.22 165.20
  Q 364.06 169.99 359.04 173.05
  C 357.04 174.27 355.65 175.64 353.96 177.09
  C 353.15 177.78 352.54 177.68 351.53 177.61
  Q 351.10 177.58 351.13 178.01
  Q 351.17 178.73 350.71 178.81"
/>
<path stroke="#b2c718" vector-effect="non-scaling-stroke" d="
  M 350.71 178.81
  Q 349.92 165.34 343.04 151.97
  Q 337.40 141.00 327.19 135.03"
/>
<path stroke="#9fba1c" vector-effect="non-scaling-stroke" d="
  M 350.71 178.81
  C 351.56 192.28 348.29 204.46 342.41 216.72
  A 0.73 0.72 14.4 0 1 341.71 217.13
  Q 341.09 217.09 341.12 217.73
  Q 341.13 218.09 340.80 217.95
  Q 340.24 217.71 339.55 217.92
  Q 339.13 218.05 338.69 218.05
  L 323.18 218.11"
/>
<path stroke="#4bb037" vector-effect="non-scaling-stroke" d="
  M 345.50 252.00
  Q 344.96 251.81 344.23 251.87
  Q 343.83 251.91 343.87 252.31
  Q 343.92 252.74 343.52 252.72
  Q 335.28 252.24 328.26 255.13
  Q 325.92 256.09 319.99 256.05"
/>
<path stroke="#82cc28" vector-effect="non-scaling-stroke" d="
  M 319.99 256.05
  Q 329.18 245.81 336.14 233.98
  Q 336.16 233.94 336.12 233.92
  L 335.91 233.79
  Q 335.66 233.65 335.52 233.89
  Q 330.67 241.93 324.02 248.59"
/>
<path stroke="#4bb037" vector-effect="non-scaling-stroke" d="
  M 324.02 248.59
  Q 323.71 248.08 324.18 247.55
  Q 324.41 247.29 324.07 247.22
  Q 322.97 247.00 322.23 246.30
  Q 321.92 246.00 321.50 245.89
  C 320.13 245.52 319.11 245.89 317.85 245.81
  Q 313.47 245.52 309.17 246.40
  C 306.80 246.89 303.90 247.24 302.54 244.76"
/>
<path stroke="#5ebd33" vector-effect="non-scaling-stroke" d="
  M 319.99 256.05
  Q 307.21 267.13 290.99 272.42
  Q 290.85 272.47 290.86 272.31
  Q 290.87 272.17 291.02 272.11
  C 299.37 268.71 306.59 263.21 314.00 258.19
  Q 318.32 255.26 324.02 248.59"
/>
<path stroke="#15623f" vector-effect="non-scaling-stroke" d="
  M 325.66 333.83
  L 325.71 333.12"
/>
</g>
<path fill="#16abdf" d="
  M 226.69 115.31
  Q 226.62 113.63 224.93 113.31
  Q 224.46 113.22 224.12 112.88
  L 222.47 111.22
  A 0.35 0.35 0.0 0 0 221.88 111.48
  Q 221.89 111.63 221.86 111.78
  Q 221.77 112.24 221.36 112.02
  C 219.39 110.95 216.24 109.95 214.28 111.28
  Q 213.86 111.56 213.37 111.62
  L 208.84 112.19
  Q 208.04 112.29 208.69 111.82
  L 210.61 110.41
  Q 211.06 110.09 211.15 109.55
  L 211.21 109.15
  A 0.31 0.30 -18.1 0 0 210.69 108.89
  Q 210.06 109.53 209.41 109.24
  Q 208.81 108.97 208.41 109.49
  Q 207.44 110.71 205.55 110.16
  L 218.48 100.73
  A 0.94 0.94 0.0 0 0 218.87 99.97
  L 218.87 98.03
  Q 218.87 97.59 218.54 97.30
  Q 217.11 96.05 216.51 94.24
  Q 216.40 93.89 216.76 93.87
  Q 217.07 93.84 217.10 93.50
  Q 217.39 90.35 216.77 86.06
  Q 216.76 85.99 216.69 85.97
  L 216.32 85.88
  Q 216.01 85.80 216.09 85.49
  Q 216.39 84.37 215.84 83.45
  Q 215.62 83.08 215.88 82.73
  Q 216.17 82.34 215.76 82.01
  A 0.21 0.21 0.0 0 0 215.49 82.02
  Q 215.37 82.12 215.18 82.16
  A 0.11 0.10 75.1 0 1 215.06 82.08
  Q 214.75 80.84 215.53 79.43
  C 223.66 74.75 231.51 72.47 241.57 69.47
  C 253.71 65.85 277.11 60.45 286.06 73.18
  C 289.49 78.05 288.61 84.35 284.84 88.77
  C 280.94 93.34 274.43 94.03 269.15 96.13
  C 258.64 100.28 248.33 104.33 238.10 109.65
  Q 232.48 112.57 226.69 115.31
  Z"
/>
<path fill="#21e4d1" d="
  M 215.53 79.43
  Q 214.75 80.84 215.06 82.08
  A 0.11 0.10 75.1 0 0 215.18 82.16
  Q 215.37 82.12 215.49 82.02
  A 0.21 0.21 0.0 0 1 215.76 82.01
  Q 216.17 82.34 215.88 82.73
  Q 215.62 83.08 215.84 83.45
  Q 216.39 84.37 216.09 85.49
  Q 216.01 85.80 216.32 85.88
  L 216.69 85.97
  Q 216.76 85.99 216.77 86.06
  Q 217.39 90.35 217.10 93.50
  Q 217.07 93.84 216.76 93.87
  Q 216.40 93.89 216.51 94.24
  Q 217.11 96.05 218.54 97.30
  Q 218.87 97.59 218.87 98.03
  L 218.87 99.97
  A 0.94 0.94 0.0 0 1 218.48 100.73
  L 205.55 110.16
  C 202.70 112.80 199.60 115.21 197.13 117.92
  Q 188.87 126.96 182.35 137.33
  Q 180.57 140.15 177.74 147.20
  Q 171.04 163.88 170.01 179.55
  C 169.84 182.17 168.68 183.74 166.83 185.33
  C 166.00 186.04 165.31 187.24 164.39 187.83
  Q 162.73 188.90 162.35 189.27
  Q 161.15 190.48 159.98 191.73
  C 158.29 193.53 157.52 195.27 156.73 197.55
  Q 156.69 197.66 156.57 197.71
  Q 156.23 197.87 156.15 197.59
  Q 156.08 197.33 155.90 197.53
  L 152.36 201.45
  Q 151.69 202.20 151.46 201.22
  Q 151.35 200.74 151.11 200.46
  Q 150.24 196.88 149.95 191.75
  C 149.16 177.84 150.45 165.06 154.33 151.91
  C 155.81 146.89 157.06 141.77 159.21 137.15
  Q 163.46 128.02 168.94 119.59
  C 171.02 116.40 174.27 112.91 176.85 109.43
  C 183.88 99.95 190.93 95.06 198.63 89.14
  Q 204.49 84.64 215.53 79.43
  Z"
/>
<path fill="#0378ce" d="
  M 323.05 124.07
  L 321.55 121.61
  Q 321.42 121.40 321.17 121.42
  Q 321.03 121.43 320.90 121.37
  Q 320.48 121.18 320.71 120.78
  Q 321.14 120.01 320.85 119.23
  Q 319.89 116.67 320.93 114.50
  Q 321.16 114.02 320.97 113.52
  L 318.84 108.04
  A 1.53 1.53 0.0 0 0 316.78 107.20
  C 306.55 111.82 295.70 116.17 286.24 120.64
  C 275.28 125.82 264.38 131.07 253.31 136.01
  Q 246.69 138.96 241.05 142.62
  Q 236.74 138.30 236.38 133.24
  Q 236.32 132.33 236.38 129.19
  Q 236.39 128.70 236.06 128.33
  Q 235.78 128.02 235.93 127.59
  Q 236.05 127.20 235.65 127.14
  L 234.19 126.93
  C 244.64 120.62 256.21 115.99 266.34 111.17
  Q 272.41 108.29 278.46 105.36
  Q 291.76 98.93 302.42 94.45
  Q 307.00 92.52 313.57 90.65
  C 326.82 86.88 345.42 93.43 347.95 108.66
  C 349.23 116.40 343.33 122.70 335.61 122.88
  Q 327.04 123.09 323.05 124.07
  Z"
/>
<path fill="#035697" d="
  M 323.05 124.07
  C 308.67 128.40 299.28 140.42 303.69 155.77
  Q 304.25 157.71 308.14 164.34
  L 303.17 170.08
  C 301.09 161.70 295.80 156.20 288.26 152.10
  C 273.91 144.30 259.42 147.66 246.64 156.90
  C 237.91 163.21 231.82 177.78 231.77 189.50
  Q 231.50 243.50 231.61 297.65
  A 0.31 0.31 0.0 0 1 231.24 297.95
  Q 221.06 295.65 212.26 290.04
  Q 212.66 285.91 212.66 284.75
  Q 212.78 265.86 212.64 199.75
  Q 212.61 186.47 215.52 178.50
  C 217.34 173.49 218.90 168.09 221.45 163.69
  C 226.19 155.53 233.14 148.56 241.05 142.62
  Q 246.69 138.96 253.31 136.01
  C 264.38 131.07 275.28 125.82 286.24 120.64
  C 295.70 116.17 306.55 111.82 316.78 107.20
  A 1.53 1.53 0.0 0 1 318.84 108.04
  L 320.97 113.52
  Q 321.16 114.02 320.93 114.50
  Q 319.89 116.67 320.85 119.23
  Q 321.14 120.01 320.71 120.78
  Q 320.48 121.18 320.90 121.37
  Q 321.03 121.43 321.17 121.42
  Q 321.42 121.40 321.55 121.61
  L 323.05 124.07
  Z"
/>
<path fill="#12acad" d="
  M 226.69 115.31
  Q 212.99 124.25 201.79 136.39
  C 197.85 140.65 194.97 145.66 191.92 150.68
  Q 183.52 164.49 181.09 180.54
  Q 179.62 190.24 180.40 205.25
  Q 180.64 209.82 178.17 214.18
  Q 176.31 217.45 173.01 218.81
  C 167.98 220.88 160.03 220.37 156.52 215.26
  Q 151.93 208.55 151.11 200.46
  Q 151.35 200.74 151.46 201.22
  Q 151.69 202.20 152.36 201.45
  L 155.90 197.53
  Q 156.08 197.33 156.15 197.59
  Q 156.23 197.87 156.57 197.71
  Q 156.69 197.66 156.73 197.55
  C 157.52 195.27 158.29 193.53 159.98 191.73
  Q 161.15 190.48 162.35 189.27
  Q 162.73 188.90 164.39 187.83
  C 165.31 187.24 166.00 186.04 166.83 185.33
  C 168.68 183.74 169.84 182.17 170.01 179.55
  Q 171.04 163.88 177.74 147.20
  Q 180.57 140.15 182.35 137.33
  Q 188.87 126.96 197.13 117.92
  C 199.60 115.21 202.70 112.80 205.55 110.16
  Q 207.44 110.71 208.41 109.49
  Q 208.81 108.97 209.41 109.24
  Q 210.06 109.53 210.69 108.89
  A 0.31 0.30 -18.1 0 1 211.21 109.15
  L 211.15 109.55
  Q 211.06 110.09 210.61 110.41
  L 208.69 111.82
  Q 208.04 112.29 208.84 112.19
  L 213.37 111.62
  Q 213.86 111.56 214.28 111.28
  C 216.24 109.95 219.39 110.95 221.36 112.02
  Q 221.77 112.24 221.86 111.78
  Q 221.89 111.63 221.88 111.48
  A 0.35 0.35 0.0 0 1 222.47 111.22
  L 224.12 112.88
  Q 224.46 113.22 224.93 113.31
  Q 226.62 113.63 226.69 115.31
  Z"
/>
<path fill="#16ccc1" d="
  M 234.19 126.93
  L 235.65 127.14
  Q 236.05 127.20 235.93 127.59
  Q 235.78 128.02 236.06 128.33
  Q 236.39 128.70 236.38 129.19
  Q 236.32 132.33 236.38 133.24
  Q 236.74 138.30 241.05 142.62
  C 233.14 148.56 226.19 155.53 221.45 163.69
  C 218.90 168.09 217.34 173.49 215.52 178.50
  Q 212.61 186.47 212.64 199.75
  Q 212.78 265.86 212.66 284.75
  Q 212.66 285.91 212.26 290.04
  Q 193.32 280.39 193.13 259.02
  Q 192.85 226.48 193.33 194.01
  C 193.52 181.43 197.11 168.89 203.31 158.48
  Q 211.05 145.48 219.37 137.62
  Q 224.41 132.85 234.19 126.93
  Z"
/>
<path fill="#95d923" d="
  M 367.22 165.20
  Q 364.06 169.99 359.04 173.05
  C 357.04 174.27 355.65 175.64 353.96 177.09
  C 353.15 177.78 352.54 177.68 351.53 177.61
  Q 351.10 177.58 351.13 178.01
  Q 351.17 178.73 350.71 178.81
  Q 349.92 165.34 343.04 151.97
  Q 337.40 141.00 327.19 135.03
  C 337.64 132.71 347.04 134.85 354.83 142.21
  C 361.41 148.44 364.68 156.14 367.22 165.20
  Z"
/>
<path fill="#ceb50c" d="
  M 327.19 135.03
  Q 337.40 141.00 343.04 151.97
  Q 349.92 165.34 350.71 178.81
  C 351.56 192.28 348.29 204.46 342.41 216.72
  A 0.73 0.72 14.4 0 1 341.71 217.13
  Q 341.09 217.09 341.12 217.73
  Q 341.13 218.09 340.80 217.95
  Q 340.24 217.71 339.55 217.92
  Q 339.13 218.05 338.69 218.05
  L 323.18 218.11
  C 331.93 200.32 333.02 178.03 321.55 161.19
  C 317.03 154.55 313.26 148.95 318.10 141.10
  Q 321.40 135.74 327.19 135.03
  Z"
/>
<path fill="#6fbf2c" d="
  M 308.14 164.34
  Q 321.10 181.80 315.26 202.83
  Q 308.76 203.38 302.36 202.90
  C 301.13 202.81 299.20 203.16 297.68 202.35
  Q 297.41 202.21 297.13 202.33
  Q 296.94 202.40 296.71 202.34
  Q 296.44 202.26 296.42 202.02
  Q 296.41 201.82 296.50 201.52
  C 298.80 198.80 300.97 196.19 302.12 192.77
  C 304.83 184.75 304.45 178.35 303.17 170.08
  L 308.14 164.34
  Z"
/>
<path fill="#6fbf2c" d="
  M 367.22 165.20
  Q 371.47 183.39 367.72 202.00
  C 366.35 208.79 364.62 216.93 362.04 223.47
  Q 355.96 238.91 345.50 252.00
  Q 344.96 251.81 344.23 251.87
  Q 343.83 251.91 343.87 252.31
  Q 343.92 252.74 343.52 252.72
  Q 335.28 252.24 328.26 255.13
  Q 325.92 256.09 319.99 256.05
  Q 329.18 245.81 336.14 233.98
  Q 336.16 233.94 336.12 233.92
  L 335.91 233.79
  Q 335.66 233.65 335.52 233.89
  Q 330.67 241.93 324.02 248.59
  Q 323.71 248.08 324.18 247.55
  Q 324.41 247.29 324.07 247.22
  Q 322.97 247.00 322.23 246.30
  Q 321.92 246.00 321.50 245.89
  C 320.13 245.52 319.11 245.89 317.85 245.81
  Q 313.47 245.52 309.17 246.40
  C 306.80 246.89 303.90 247.24 302.54 244.76
  C 305.48 241.66 309.17 238.68 311.66 235.89
  Q 318.69 227.97 323.18 218.11
  L 338.69 218.05
  Q 339.13 218.05 339.55 217.92
  Q 340.24 217.71 340.80 217.95
  Q 341.13 218.09 341.12 217.73
  Q 341.09 217.09 341.71 217.13
  A 0.73 0.72 14.4 0 0 342.41 216.72
  C 348.29 204.46 351.56 192.28 350.71 178.81
  Q 351.17 178.73 351.13 178.01
  Q 351.10 177.58 351.53 177.61
  C 352.54 177.68 353.15 177.78 353.96 177.09
  C 355.65 175.64 357.04 174.27 359.04 173.05
  Q 364.06 169.99 367.22 165.20
  Z"
/>
<ellipse fill="#0378ce" cx="0.00" cy="0.00" transform="translate(272.90,183.32) rotate(-14.1)" rx="12.85" ry="12.55"/>
<path fill="#27a042" d="
  M 296.50 201.52
  Q 296.41 201.82 296.42 202.02
  Q 296.44 202.26 296.71 202.34
  Q 296.94 202.40 297.13 202.33
  Q 297.41 202.21 297.68 202.35
  C 299.20 203.16 301.13 202.81 302.36 202.90
  Q 308.76 203.38 315.26 202.83
  Q 312.58 212.19 308.78 217.26
  C 305.44 221.71 302.17 226.55 298.33 230.22
  C 287.86 240.22 272.22 245.06 258.23 247.18
  A 0.19 0.19 0.0 0 1 258.01 246.99
  L 257.99 213.76
  A 0.47 0.47 0.0 0 1 258.47 213.29
  C 264.23 213.42 271.02 213.95 276.14 213.06
  Q 288.09 211.00 296.50 201.52
  Z"
/>
<path fill="#95d923" d="
  M 319.99 256.05
  Q 307.21 267.13 290.99 272.42
  Q 290.85 272.47 290.86 272.31
  Q 290.87 272.17 291.02 272.11
  C 299.37 268.71 306.59 263.21 314.00 258.19
  Q 318.32 255.26 324.02 248.59
  Q 330.67 241.93 335.52 233.89
  Q 335.66 233.65 335.91 233.79
  L 336.12 233.92
  Q 336.16 233.94 336.14 233.98
  Q 329.18 245.81 319.99 256.05
  Z"
/>
<path fill="#27a042" d="
  M 302.54 244.76
  C 303.90 247.24 306.80 246.89 309.17 246.40
  Q 313.47 245.52 317.85 245.81
  C 319.11 245.89 320.13 245.52 321.50 245.89
  Q 321.92 246.00 322.23 246.30
  Q 322.97 247.00 324.07 247.22
  Q 324.41 247.29 324.18 247.55
  Q 323.71 248.08 324.02 248.59
  Q 318.32 255.26 314.00 258.19
  C 306.59 263.21 299.37 268.71 291.02 272.11
  Q 290.87 272.17 290.86 272.31
  Q 290.85 272.47 290.99 272.42
  Q 307.21 267.13 319.99 256.05
  Q 325.92 256.09 328.26 255.13
  Q 335.28 252.24 343.52 252.72
  Q 343.92 252.74 343.87 252.31
  Q 343.83 251.91 344.23 251.87
  Q 344.96 251.81 345.50 252.00
  Q 342.82 256.43 340.88 258.38
  C 331.86 267.43 321.25 276.76 309.38 281.80
  C 297.65 286.78 269.87 300.17 260.15 285.63
  C 257.62 281.84 256.42 278.64 257.55 274.02
  C 260.46 262.05 270.34 262.30 279.66 258.56
  Q 292.22 253.51 302.54 244.76
  Z"
/>
<path fill="#03233b" d="
  M 66.82 364.26
  L 66.81 379.22
  Q 66.81 379.74 66.28 379.74
  L 54.19 379.75
  Q 53.37 379.75 53.37 378.94
  L 53.33 324.73
  A 0.68 0.67 90.0 0 1 54.00 324.05
  Q 67.62 324.03 81.00 324.11
  C 86.56 324.15 91.83 325.43 95.69 329.57
  C 104.84 339.38 102.35 355.09 90.75 361.74
  C 85.83 364.56 73.61 363.64 67.31 363.76
  Q 66.82 363.76 66.82 364.26
  Z
  M 66.93 337.49
  L 66.89 350.83
  A 0.38 0.38 0.0 0 0 67.27 351.22
  L 80.31 351.26
  A 7.36 6.90 0.2 0 0 87.69 344.39
  L 87.69 344.09
  A 7.36 6.90 0.2 0 0 80.35 337.16
  L 67.31 337.12
  A 0.38 0.38 0.0 0 0 66.93 337.49
  Z"
/>
<path fill="#27a042" d="
  M 325.66 333.83
  L 325.71 333.12
  L 325.92 325.04
  A 0.63 0.63 0.0 0 1 326.55 324.42
  L 335.23 324.44
  A 0.79 0.79 0.0 0 1 336.01 325.23
  L 336.05 344.77
  A 0.72 0.71 0.0 0 0 336.77 345.48
  L 355.51 345.51
  A 0.76 0.76 0.0 0 0 356.27 344.74
  L 356.07 324.93
  Q 356.07 324.43 356.57 324.43
  L 365.48 324.50
  A 0.74 0.73 0.4 0 1 366.21 325.23
  L 366.16 377.45
  A 0.85 0.85 0.0 0 1 365.30 378.30
  L 357.22 378.23
  Q 356.21 378.22 356.21 377.22
  L 356.24 357.37
  A 0.62 0.62 0.0 0 0 355.62 356.75
  L 336.45 356.65
  A 0.40 0.39 90.0 0 0 336.06 357.05
  L 335.99 377.77
  Q 335.98 378.28 335.48 378.28
  L 326.98 378.29
  A 1.20 1.20 0.0 0 1 325.77 377.09
  L 325.66 333.83
  Z"
/>
<path fill="#27a042" d="
  M 461.25 351.42
  A 0.44 0.43 -51.1 0 0 461.33 352.20
  C 469.03 354.88 471.24 362.13 468.78 369.37
  C 465.77 378.24 455.72 379.90 447.25 379.82
  Q 433.90 379.70 420.35 379.43
  Q 419.47 379.41 419.47 378.53
  L 419.49 324.73
  A 0.36 0.36 0.0 0 1 419.85 324.37
  Q 433.51 324.43 447.19 324.45
  Q 453.28 324.46 455.74 325.15
  C 467.22 328.36 472.67 344.41 461.25 351.42
  Z
  M 431.52 338.23
  L 431.48 346.05
  A 0.76 0.76 0.0 0 0 432.24 346.81
  L 449.28 346.90
  A 5.72 4.34 0.3 0 0 455.02 342.59
  L 455.02 341.93
  A 5.72 4.34 0.3 0 0 449.32 337.56
  L 432.28 337.47
  A 0.76 0.76 0.0 0 0 431.52 338.23
  Z
  M 431.50 359.28
  L 431.48 366.22
  A 0.78 0.78 0.0 0 0 432.26 367.00
  L 450.86 367.03
  A 6.18 4.00 0.1 0 0 457.05 363.04
  L 457.05 362.54
  A 6.18 4.00 0.1 0 0 450.88 358.53
  L 432.28 358.50
  A 0.78 0.78 0.0 0 0 431.50 359.28
  Z"
/>
<path fill="#03233b" d="
  M 153.8404 355.9283
  A 24.65 23.57 1.6 0 1 128.5419 378.8008
  A 24.65 23.57 1.6 0 1 104.5596 354.5517
  A 24.65 23.57 1.6 0 1 129.8581 331.6792
  A 24.65 23.57 1.6 0 1 153.8404 355.9283
  Z
  M 141.4815 355.8436
  A 12.64 12.13 3.1 0 0 129.5160 343.0478
  A 12.64 12.13 3.1 0 0 116.2385 354.4764
  A 12.64 12.13 3.1 0 0 128.2040 367.2722
  A 12.64 12.13 3.1 0 0 141.4815 355.8436
  Z"
/>
<path fill="#03233b" d="
  M 325.71 333.12
  L 325.66 333.83
  C 323.19 336.02 322.04 339.48 320.79 341.42
  Q 314.94 350.52 309.52 359.90
  Q 308.47 361.73 308.46 363.85
  Q 308.44 370.33 308.48 377.50
  A 0.49 0.48 -0.6 0 1 307.99 377.99
  L 297.74 378.01
  Q 297.22 378.01 297.22 377.49
  L 297.17 361.76
  A 1.21 1.14 30.6 0 0 296.99 361.14
  L 281.42 335.28
  Q 281.20 334.91 281.19 335.34
  L 281.06 343.48
  Q 281.05 344.00 280.52 344.00
  L 268.58 343.92
  A 0.37 0.36 -90.0 0 0 268.22 344.29
  L 268.19 377.53
  Q 268.19 377.99 267.72 378.00
  L 257.67 378.04
  A 0.62 0.62 0.0 0 1 257.04 377.42
  L 257.03 344.23
  A 0.30 0.29 -90.0 0 0 256.74 343.93
  L 245.24 344.00
  Q 244.73 344.01 244.72 343.49
  L 244.60 334.07
  Q 244.60 333.48 245.18 333.48
  L 292.87 333.45
  Q 293.44 333.45 293.71 333.95
  L 302.63 350.18
  Q 302.87 350.61 303.12 350.19
  L 312.32 334.25
  A 1.74 1.72 -75.4 0 1 313.78 333.38
  L 325.71 333.12
  Z"
/>
<path fill="#27a042" d="
  M 385.33 366.25
  C 390.77 371.90 402.15 368.91 402.31 360.31
  Q 402.55 346.83 402.47 333.84
  Q 402.46 333.05 403.25 333.04
  L 410.76 333.03
  Q 411.55 333.03 411.55 333.82
  Q 411.53 345.91 411.64 358.50
  Q 411.73 367.92 405.67 373.68
  C 394.90 383.94 373.78 376.85 373.75 360.75
  Q 373.72 347.05 373.77 333.98
  Q 373.78 333.03 374.74 333.04
  L 382.25 333.12
  Q 383.22 333.13 383.22 334.10
  Q 383.31 347.81 383.21 361.24
  Q 383.18 364.02 385.33 366.25
  Z"
/>
<path fill="#03233b" d="
  M 170.92 364.99
  L 170.90 377.64
  A 0.37 0.37 0.0 0 1 170.53 378.01
  L 159.74 378.00
  A 0.51 0.51 0.0 0 1 159.23 377.49
  L 159.22 333.98
  Q 159.21 333.55 159.64 333.55
  Q 169.65 333.41 179.73 333.61
  Q 189.01 333.79 193.59 339.86
  C 198.96 346.97 196.75 358.63 188.70 362.83
  C 184.20 365.19 176.72 364.86 171.38 364.56
  A 0.44 0.44 0.0 0 0 170.92 364.99
  Z
  M 170.91 343.98
  L 170.99 354.26
  A 0.32 0.32 0.0 0 0 171.31 354.58
  L 179.37 354.52
  A 5.52 5.29 -0.4 0 0 184.85 349.19
  L 184.85 348.85
  A 5.52 5.29 -0.4 0 0 179.29 343.60
  L 171.23 343.66
  A 0.32 0.32 0.0 0 0 170.91 343.98
  Z"
/>
<path fill="#03233b" d="
  M 213.26 366.96
  L 235.68 367.00
  A 2.12 2.10 72.9 0 1 237.43 367.94
  L 243.75 377.50
  Q 244.04 377.94 243.52 377.94
  L 201.26 377.98
  A 0.47 0.47 0.0 0 1 200.79 377.51
  L 200.76 334.01
  Q 200.76 333.50 201.27 333.49
  Q 213.63 333.35 225.94 333.47
  Q 232.36 333.53 234.88 334.71
  C 242.50 338.27 243.55 350.07 239.15 356.21
  C 236.34 360.14 231.64 360.94 226.54 360.99
  Q 219.65 361.06 213.11 361.01
  Q 212.58 361.00 212.58 361.54
  L 212.56 366.26
  Q 212.56 366.96 213.26 366.96
  Z
  M 212.58 343.74
  L 212.60 350.54
  A 0.27 0.27 0.0 0 0 212.87 350.81
  L 226.68 350.78
  A 3.80 3.48 -0.1 0 0 230.47 347.29
  L 230.47 346.91
  A 3.80 3.48 -0.1 0 0 226.66 343.44
  L 212.85 343.47
  A 0.27 0.27 0.0 0 0 212.58 343.74
  Z"
/>
<path fill="#03233b" d="
  M 280.48 406.95
  L 280.53 418.96
  Q 280.54 419.71 279.79 419.71
  L 278.20 419.70
  Q 277.46 419.69 277.46 418.95
  L 277.43 406.95
  Q 277.43 406.32 276.80 406.31
  C 273.64 406.30 270.57 407.56 267.14 406.05
  A 0.80 0.80 0.0 0 1 266.78 404.89
  L 267.59 403.60
  A 1.57 1.55 -66.5 0 1 269.29 402.92
  C 270.54 403.23 271.57 403.78 272.94 403.79
  Q 278.71 403.86 284.11 403.73
  Q 285.06 403.71 285.02 404.66
  L 284.98 405.43
  A 1.12 1.12 0.0 0 1 283.82 406.49
  L 281.05 406.40
  Q 280.48 406.38 280.48 406.95
  Z"
/>
<path fill="#0d1f26" d="
  M 103.81 409.65
  L 107.19 404.25
  Q 107.55 403.68 108.22 403.71
  L 110.27 403.79
  Q 111.03 403.82 110.60 404.44
  Q 108.08 408.03 105.92 411.58
  C 104.39 414.09 104.90 416.26 104.92 418.99
  A 0.82 0.82 0.0 0 1 104.06 419.82
  L 102.50 419.75
  A 0.84 0.83 -87.0 0 1 101.70 418.85
  C 101.92 415.98 102.08 413.68 100.40 411.05
  Q 98.33 407.81 96.18 404.31
  A 0.41 0.41 0.0 0 1 96.55 403.69
  L 98.64 403.82
  Q 99.34 403.86 99.72 404.45
  L 103.12 409.65
  Q 103.47 410.19 103.81 409.65
  Z"
/>
<path fill="#0d1f26" d="
  M 127.53 411.54
  A 8.14 8.14 0.0 0 1 119.39 419.68
  A 8.14 8.14 0.0 0 1 111.25 411.54
  A 8.14 8.14 0.0 0 1 119.39 403.40
  A 8.14 8.14 0.0 0 1 127.53 411.54
  Z
  M 124.47 411.38
  A 5.24 5.24 0.0 0 0 119.23 406.14
  A 5.24 5.24 0.0 0 0 113.99 411.38
  A 5.24 5.24 0.0 0 0 119.23 416.62
  A 5.24 5.24 0.0 0 0 124.47 411.38
  Z"
/>
<path fill="#0d1f26" d="
  M 351.9918 409.4958
  A 8.22 8.04 -14.4 0 1 346.0295 419.3274
  A 8.22 8.04 -14.4 0 1 336.0682 413.5842
  A 8.22 8.04 -14.4 0 1 342.0305 403.7526
  A 8.22 8.04 -14.4 0 1 351.9918 409.4958
  Z
  M 349.10 411.39
  A 5.10 5.10 0.0 0 0 344.00 406.29
  A 5.10 5.10 0.0 0 0 338.90 411.39
  A 5.10 5.10 0.0 0 0 344.00 416.49
  A 5.10 5.10 0.0 0 0 349.10 411.39
  Z"
/>
<path fill="#0d1f26" d="
  M 384.40 413.68
  C 381.64 412.46 375.51 411.71 376.53 407.33
  C 377.47 403.27 383.93 402.38 386.66 405.12
  Q 387.04 405.50 386.66 405.88
  L 385.97 406.57
  Q 385.59 406.95 385.08 406.78
  Q 383.03 406.08 380.88 406.35
  Q 378.60 406.65 379.98 408.64
  A 1.26 1.20 81.2 0 0 380.58 409.10
  C 384.15 410.39 391.07 412.50 386.43 418.04
  C 383.89 421.06 378.88 419.58 376.05 417.76
  Q 375.72 417.55 375.98 417.26
  L 377.60 415.41
  Q 377.85 415.13 378.19 415.31
  C 380.30 416.46 381.82 417.79 384.46 416.46
  A 1.54 1.54 0.0 0 0 384.40 413.68
  Z"
/>
<path fill="#0d1f26" d="
  M 134.08 413.67
  C 135.68 418.61 141.78 417.22 141.57 412.70
  C 141.44 409.88 141.52 407.05 141.50 404.34
  Q 141.49 403.75 142.08 403.75
  L 144.25 403.77
  Q 144.82 403.78 144.81 404.35
  C 144.68 410.66 146.65 419.35 137.75 419.71
  C 129.18 420.06 130.58 409.64 130.80 404.36
  Q 130.83 403.73 131.45 403.76
  L 133.42 403.84
  Q 133.98 403.87 133.98 404.43
  L 133.90 412.52
  A 3.78 3.74 -54.2 0 0 134.08 413.67
  Z"
/>
<path fill="#0d1f26" d="
  M 152.12 414.75
  L 152.20 418.80
  Q 152.22 419.83 151.19 419.80
  L 149.99 419.76
  A 1.03 1.02 -89.4 0 1 149.00 418.74
  L 148.98 404.25
  A 0.44 0.44 0.0 0 1 149.42 403.81
  C 152.68 403.76 157.40 403.06 160.15 405.27
  C 162.93 407.51 162.06 411.30 159.47 413.30
  A 1.28 1.27 -35.1 0 0 159.17 414.98
  L 161.80 419.19
  A 0.30 0.30 0.0 0 1 161.52 419.65
  L 158.73 419.41
  Q 158.14 419.36 157.83 418.86
  C 156.60 416.91 155.93 413.42 152.60 414.14
  Q 152.11 414.24 152.12 414.75
  Z
  M 152.05 407.04
  L 152.01 410.86
  A 0.70 0.70 0.0 0 0 152.70 411.56
  L 155.78 411.60
  A 2.76 2.11 0.6 0 0 158.56 409.51
  L 158.58 408.51
  A 2.76 2.11 0.6 0 0 155.84 406.38
  L 152.76 406.34
  A 0.70 0.70 0.0 0 0 152.05 407.04
  Z"
/>
<path fill="#0d1f26" d="
  M 175.88 414.55
  L 175.81 418.75
  Q 175.79 419.80 174.75 419.75
  L 173.59 419.71
  Q 172.58 419.67 172.59 418.66
  L 172.67 404.47
  Q 172.68 403.94 173.20 403.90
  C 177.17 403.59 184.48 402.77 185.38 408.00
  Q 185.99 411.59 182.52 413.51
  A 0.52 0.51 -29.9 0 0 182.32 414.23
  L 185.14 419.00
  Q 185.49 419.59 184.81 419.58
  L 182.73 419.57
  A 1.43 1.41 73.7 0 1 181.53 418.90
  C 180.50 417.27 178.89 413.68 176.40 413.97
  A 0.59 0.58 -3.3 0 0 175.88 414.55
  Z
  M 175.82 407.03
  L 175.80 410.89
  A 0.55 0.55 0.0 0 0 176.34 411.44
  L 179.52 411.46
  A 2.65 1.82 0.4 0 0 182.19 409.66
  L 182.19 408.34
  A 2.65 1.82 0.4 0 0 179.56 406.50
  L 176.38 406.48
  A 0.55 0.55 0.0 0 0 175.82 407.03
  Z"
/>
<path fill="#0d1f26" d="
  M 192.43 406.86
  L 192.35 409.28
  A 0.59 0.59 0.0 0 0 192.93 409.89
  L 198.43 410.01
  A 0.59 0.59 0.0 0 1 199.00 410.63
  L 198.91 412.18
  A 0.59 0.59 0.0 0 1 198.31 412.74
  L 193.07 412.64
  A 0.59 0.59 0.0 0 0 192.47 413.20
  L 192.30 416.03
  A 0.59 0.59 0.0 0 0 192.88 416.66
  L 200.30 416.75
  A 0.59 0.59 0.0 0 1 200.88 417.41
  L 200.70 418.98
  A 0.59 0.59 0.0 0 1 200.12 419.51
  L 189.88 419.63
  A 0.59 0.59 0.0 0 1 189.28 419.04
  L 189.22 404.39
  A 0.59 0.59 0.0 0 1 189.81 403.80
  L 200.19 403.79
  A 0.59 0.59 0.0 0 1 200.78 404.41
  L 200.71 405.91
  A 0.59 0.59 0.0 0 1 200.10 406.47
  L 193.04 406.29
  A 0.59 0.59 0.0 0 0 192.43 406.86
  Z"
/>
<path fill="#0d1f26" d="
  M 206.88 416.66
  L 206.13 418.79
  Q 205.86 419.55 205.05 419.60
  L 203.04 419.72
  A 0.63 0.63 0.0 0 1 202.43 418.82
  L 209.31 404.62
  A 1.96 1.96 0.0 0 1 212.81 404.55
  Q 216.47 411.39 219.01 418.72
  Q 219.39 419.82 218.23 419.71
  L 217.48 419.64
  Q 216.37 419.54 215.90 418.54
  L 214.97 416.54
  A 1.00 0.99 -12.7 0 0 214.05 415.97
  L 207.74 416.04
  Q 207.09 416.05 206.88 416.66
  Z
  M 208.61 412.42
  A 0.64 0.64 0.0 0 0 209.18 413.33
  L 212.75 413.38
  A 0.64 0.64 0.0 0 0 213.34 412.49
  L 211.61 408.55
  A 0.64 0.64 0.0 0 0 210.45 408.54
  L 208.61 412.42
  Z"
/>
<path fill="#0d1f26" d="
  M 225.45 416.54
  L 232.67 416.75
  A 0.48 0.48 0.0 0 1 233.13 417.28
  L 232.92 419.11
  A 0.48 0.48 0.0 0 1 232.44 419.54
  L 222.30 419.53
  A 0.48 0.48 0.0 0 1 221.82 419.05
  L 221.95 404.23
  A 0.48 0.48 0.0 0 1 222.44 403.75
  L 224.53 403.81
  A 0.48 0.48 0.0 0 1 225.00 404.29
  L 224.98 416.06
  A 0.48 0.48 0.0 0 0 225.45 416.54
  Z"
/>
<path fill="#0d1f26" d="
  M 240.98 416.76
  L 248.75 416.79
  A 0.56 0.56 0.0 0 1 249.30 417.39
  L 249.18 418.96
  A 0.56 0.56 0.0 0 1 248.63 419.47
  L 238.56 419.56
  A 0.56 0.56 0.0 0 1 238.00 419.01
  L 237.98 404.39
  A 0.56 0.56 0.0 0 1 238.54 403.83
  L 248.98 403.81
  A 0.56 0.56 0.0 0 1 249.55 404.38
  L 249.53 405.74
  A 0.56 0.56 0.0 0 1 248.97 406.30
  L 241.01 406.27
  A 0.56 0.56 0.0 0 0 240.44 406.84
  L 240.46 409.26
  A 0.56 0.56 0.0 0 0 241.01 409.82
  L 246.54 409.91
  A 0.56 0.56 0.0 0 1 247.08 410.56
  L 246.83 412.20
  A 0.56 0.56 0.0 0 1 246.26 412.68
  L 241.09 412.56
  A 0.56 0.56 0.0 0 0 240.51 413.11
  L 240.42 416.18
  A 0.56 0.56 0.0 0 0 240.98 416.76
  Z"
/>
<path fill="#0d1f26" d="
  M 264.87 414.38
  A 2.16 2.13 83.1 0 0 263.33 413.16
  C 259.68 412.45 253.92 410.15 258.11 405.38
  Q 259.92 403.32 263.45 404.01
  Q 265.04 404.31 264.32 405.76
  L 264.06 406.28
  Q 263.81 406.79 263.23 406.80
  L 260.34 406.80
  A 0.85 0.84 81.5 0 0 259.54 407.89
  C 260.52 411.17 270.49 409.69 267.98 416.30
  C 266.22 420.95 259.75 420.17 256.51 417.74
  Q 255.89 417.27 256.46 416.74
  L 257.75 415.54
  A 0.90 0.89 45.7 0 1 259.00 415.56
  Q 260.92 417.48 263.46 416.70
  Q 265.63 416.04 264.87 414.38
  Z"
/>
<path fill="#0d1f26" d="
  M 290.80 406.22
  A 0.69 0.69 0.0 0 0 290.10 406.96
  L 290.23 409.04
  Q 290.30 410.04 291.29 410.03
  L 296.31 409.99
  Q 297.13 409.99 297.17 410.81
  L 297.22 412.04
  Q 297.26 412.83 296.46 412.81
  L 291.39 412.66
  Q 290.37 412.63 290.34 413.65
  L 290.27 415.97
  Q 290.24 416.95 291.23 416.95
  L 303.29 416.91
  A 0.64 0.64 0.0 0 0 303.82 415.92
  Q 301.76 412.86 298.50 411.09
  A 0.57 0.56 -32.3 0 1 298.74 410.03
  L 300.80 409.92
  Q 301.72 409.87 302.41 410.49
  L 305.40 413.20
  Q 305.67 413.45 305.66 413.82
  L 305.58 418.79
  Q 305.57 419.41 304.95 419.41
  L 287.74 419.46
  A 0.48 0.48 0.0 0 1 287.26 418.99
  L 287.10 404.21
  Q 287.10 403.78 287.53 403.78
  L 303.63 403.82
  A 0.89 0.89 0.0 0 1 304.52 404.76
  L 304.50 405.19
  A 1.19 1.18 1.5 0 1 303.31 406.31
  L 290.80 406.22
  Z"
/>
<path fill="#0d1f26" d="
  M 312.05 406.29
  L 306.41 406.29
  A 0.56 0.56 0.0 0 1 305.86 405.84
  L 305.59 404.43
  A 0.56 0.56 0.0 0 1 306.14 403.76
  L 320.40 403.83
  A 0.56 0.56 0.0 0 1 320.96 404.37
  L 321.00 405.74
  A 0.56 0.56 0.0 0 1 320.44 406.31
  L 316.31 406.27
  A 0.56 0.56 0.0 0 0 315.75 406.83
  L 315.91 419.16
  A 0.56 0.56 0.0 0 1 315.33 419.73
  L 313.26 419.67
  A 0.56 0.56 0.0 0 1 312.72 419.11
  L 312.61 406.85
  A 0.56 0.56 0.0 0 0 312.05 406.29
  Z"
/>
<path fill="#0d1f26" d="
  M 325.93 406.32
  L 322.55 406.30
  A 0.57 0.57 0.0 0 1 321.98 405.71
  L 322.04 404.32
  A 0.57 0.57 0.0 0 1 322.61 403.78
  L 334.08 403.70
  A 0.57 0.57 0.0 0 1 334.65 404.31
  L 334.54 406.02
  A 0.57 0.57 0.0 0 1 333.93 406.55
  L 330.12 406.31
  A 0.57 0.57 0.0 0 0 329.51 406.88
  L 329.55 419.21
  A 0.57 0.57 0.0 0 1 328.93 419.78
  L 326.98 419.61
  A 0.57 0.57 0.0 0 1 326.46 419.04
  L 326.50 406.89
  A 0.57 0.57 0.0 0 0 325.93 406.32
  Z"
/>
<path fill="#0d1f26" d="
  M 358.95 414.51
  L 358.88 419.21
  Q 358.87 419.79 358.29 419.78
  L 356.19 419.73
  Q 355.66 419.71 355.66 419.19
  L 355.60 404.32
  Q 355.60 403.84 356.07 403.82
  C 360.27 403.67 370.47 402.79 368.13 410.59
  C 366.76 415.16 362.95 414.12 359.38 414.09
  A 0.43 0.43 0.0 0 0 358.95 414.51
  Z
  M 358.87 407.13
  L 358.91 410.89
  A 0.69 0.69 0.0 0 0 359.61 411.58
  L 362.85 411.54
  A 2.31 2.07 -0.6 0 0 365.14 409.45
  L 365.12 408.45
  A 2.31 2.07 -0.6 0 0 362.79 406.40
  L 359.55 406.44
  A 0.69 0.69 0.0 0 0 358.87 407.13
  Z"
/>
<path fill="#0d1f26" d="
  M 401.43 412.59
  L 395.18 412.75
  A 0.60 0.60 0.0 0 0 394.60 413.36
  L 394.75 419.08
  A 0.60 0.60 0.0 0 1 394.13 419.69
  L 392.07 419.60
  A 0.60 0.60 0.0 0 1 391.50 419.01
  L 391.47 404.35
  A 0.60 0.60 0.0 0 1 392.09 403.75
  L 394.15 403.80
  A 0.60 0.60 0.0 0 1 394.73 404.44
  L 394.47 409.11
  A 0.60 0.60 0.0 0 0 395.06 409.75
  L 401.60 409.84
  A 0.60 0.60 0.0 0 0 402.21 409.24
  L 402.20 404.38
  A 0.60 0.60 0.0 0 1 402.80 403.78
  L 404.62 403.79
  A 0.60 0.60 0.0 0 1 405.22 404.39
  L 405.22 419.15
  A 0.60 0.60 0.0 0 1 404.61 419.75
  L 402.67 419.74
  A 0.60 0.60 0.0 0 1 402.08 419.14
  L 402.04 413.19
  A 0.60 0.60 0.0 0 0 401.43 412.59
  Z"
/>
<path fill="#0d1f26" d="
  M 427.34 414.99
  L 427.32 419.00
  Q 427.32 419.81 426.50 419.75
  L 425.32 419.65
  Q 424.45 419.58 424.45 418.71
  L 424.48 404.30
  Q 424.48 403.86 424.93 403.84
  C 429.79 403.66 439.21 402.96 437.47 410.42
  C 436.41 414.96 431.69 414.36 428.02 414.31
  A 0.68 0.67 -89.6 0 0 427.34 414.99
  Z
  M 432.80 411.47
  A 1.61 1.61 0.0 0 0 434.26 409.88
  L 434.28 408.11
  A 1.61 1.61 0.0 0 0 432.78 406.48
  L 428.98 406.22
  A 1.61 1.61 0.0 0 0 427.26 407.83
  L 427.26 410.21
  A 1.61 1.61 0.0 0 0 429.02 411.82
  L 432.80 411.47
  Z"
/>
<path fill="#0d1f26" d="
  M 414.42 418.04
  Q 414.07 418.24 413.93 418.64
  A 0.47 0.47 0.0 0 1 413.17 418.84
  C 411.45 417.27 409.54 415.63 409.02 413.29
  Q 407.78 407.59 412.89 404.23
  Q 413.45 403.86 413.58 404.51
  L 413.88 406.04
  Q 413.98 406.58 413.59 406.96
  Q 409.65 410.78 413.29 414.73
  A 1.44 1.44 0.0 0 0 415.26 414.87
  Q 419.39 411.54 416.04 407.53
  C 415.07 406.37 414.84 405.60 415.80 404.42
  Q 416.09 404.06 416.48 404.32
  C 422.62 408.40 420.65 414.60 415.59 418.96
  Q 415.27 419.23 415.14 418.83
  L 414.95 418.24
  A 0.36 0.36 0.0 0 0 414.42 418.04
  Z"
/>
</svg>
